<?xml version="1.0" encoding="utf-8"?>
<!-- Generator: Adobe Illustrator 28.0.0, SVG Export Plug-In . SVG Version: 6.00 Build 0)  -->
<svg version="1.1" id="Layer_1" xmlns="http://www.w3.org/2000/svg" xmlns:xlink="http://www.w3.org/1999/xlink" x="0px" y="0px"
	 viewBox="0 0 24 24" style="enable-background:new 0 0 24 24;" xml:space="preserve">
<style type="text/css">
	.st0{fill:#FFFFFF;}
</style>
<path class="st0" d="M12,21c-2.3,0-4.3-0.8-6-2.3S3.3,15.3,3,13h2c0.2,1.7,1,3.2,2.3,4.3S10.2,19,12,19c1.9,0,3.6-0.7,5-2s2-3,2-5
	s-0.7-3.6-2-5s-3-2-5-2c-1.1,0-2.2,0.3-3.2,0.8S6.9,7.1,6.2,8H9v2H3V4h2v2.4c0.8-1.1,1.9-1.9,3.1-2.5S10.6,3,12,3
	c1.2,0,2.4,0.2,3.5,0.7s2,1.1,2.9,1.9c0.8,0.8,1.4,1.8,1.9,2.9S21,10.8,21,12s-0.2,2.4-0.7,3.5s-1.1,2-1.9,2.8
	c-0.8,0.8-1.8,1.5-2.9,1.9S13.2,21,12,21z M14.8,16.2L11,12.4V7h2v4.6l3.2,3.2L14.8,16.2z"/>
</svg>
